<?xml version="1.0" encoding="utf-8"?>
<!-- Generator: Adobe Illustrator 16.0.3, SVG Export Plug-In . SVG Version: 6.00 Build 0)  -->
<!DOCTYPE svg PUBLIC "-//W3C//DTD SVG 1.1//EN" "http://www.w3.org/Graphics/SVG/1.1/DTD/svg11.dtd">
<svg version="1.1" id="Ebene_1" xmlns="http://www.w3.org/2000/svg" xmlns:xlink="http://www.w3.org/1999/xlink" x="0px" y="0px"
	 width="400px" height="198px" viewBox="0 0 400 198" enable-background="new 0 0 400 198" xml:space="preserve">
<g>
	<path fill="#A8C713" d="M278.051,81.865c-8.298-12.652-21.607-9.684-30.597-6.944c3.076-2.53,7.766-6.586,18.44-9.122
		c0.276-0.063,0.302-0.444,0.038-0.546c-9.644-3.67-17.911,3.101-21.812,7.017c0.666-2.462,1.67-5.568,2.995-9.093
		c0.864,0.67,1.704,1.36,2.514,2.065c0.3,0.264,0.761,0.033,0.727-0.362c-0.174-2.068-0.745-4.003-1.623-5.815
		c0.698-1.708,1.461-3.479,2.287-5.303c0.087-0.191-0.138-0.379-0.306-0.255c-1.304,0.959-2.439,1.985-3.443,3.051
		c-5.979-8.729-19.299-14.146-29.285-16.487c12.02-0.732,18.907-1.723,38.804,5.979c0.432,0.169,0.849-0.29,0.63-0.7
		c-4.796-9.02-18.636-20.003-43.87-12.243c3.809-5.752,14.917-14.524,25.873-21.265c0.343-0.21,0.167-0.737-0.234-0.706
		c-15.638,1.219-25.344,7.776-30.879,15.898c1.345-7.335,4.166-16.33,12.034-25.179c0.175-0.202-0.007-0.515-0.268-0.442
		c-13.555,3.749-16.495,16.368-16.922,23.784c-1.443-7.156-9.123-20.684-21.982-22.724c-0.362-0.059-0.582,0.382-0.32,0.64
		c8.989,8.819,14.893,18.851,16.497,24.324c-9.273-9.739-25.558-24.196-44.911-14.167c-0.386,0.198-0.33,0.763,0.086,0.88
		c16.324,4.642,31.151,12.481,39.793,18.591c-16.041-3.419-41.254-6.85-49.073,19.653c-0.05,0.168,0.133,0.316,0.287,0.231
		c18.818-10.273,35.94-12.367,46.595-12.873c-29.228,10.266-34.788,30.644-36.304,34.336c-0.131,0.316,0.16,0.494,0.349,0.343
		c3.725-3.046,23.454-20.965,37.153-27.268c-7.275,7.898-18.636,24.286-12.099,44.753c0.091,0.287,0.494,0.267,0.571-0.026
		c5.179-19.566,12.421-31.627,17.218-38.006c-6.069,27.839-8.617,77.369,16.141,114.513c4.769-1.002,9.293-1.811,13.507-2.342
		c-0.652-1.165-1.298-2.477-1.823-3.905l-2.279,0.034c-0.342,0.005-0.521-0.336-0.267-0.512l1.248-0.871
		c0.479-0.334,0.694-0.847,0.563-1.357c-0.261-1.021-0.699-2.789-0.958-4.063l-2.251-0.138c-0.35-0.021-0.479-0.386-0.188-0.531
		l1.318-0.676c0.456-0.232,0.704-0.736,0.614-1.239c-0.251-1.396-0.393-2.446-0.589-4.028l-2.223-0.054
		c-0.355-0.007-0.506-0.377-0.215-0.533l1.405-0.765c0.515-0.278,0.795-0.759,0.743-1.262c-0.131-1.316-0.178-2.266-0.244-3.777
		l-2.164-0.235c-0.345-0.038-0.446-0.404-0.146-0.537l1.358-0.601c0.549-0.241,0.862-0.666,0.867-1.216
		c-0.017-0.828-0.01-1.42,0.008-2.465c0.007-0.506,0.032-1.002,0.058-1.51l-2.298-0.325c-0.353-0.051-0.425-0.435-0.102-0.543
		l1.519-0.564c0.578-0.198,0.959-0.639,0.984-1.146c0.063-1.266,0.143-2.174,0.304-3.598l-2.062-0.374
		c-0.359-0.065-0.399-0.465-0.053-0.551l1.237-0.315c0.65-0.163,1.11-0.619,1.185-1.165c0.191-1.427,0.397-2.624,0.684-4.139
		l-1.959-0.404c-0.345-0.071-0.384-0.453-0.056-0.548l1.376-0.395c0.589-0.166,1.014-0.574,1.124-1.072
		c0.246-1.115,0.483-2.014,0.81-3.234l-1.873-0.505c-0.306-0.082-0.283-0.521,0.028-0.573l1.15-0.189
		c0.673-0.111,1.193-0.52,1.352-1.053c0.3-1.024,0.569-1.873,0.948-3.001l-1.738-0.571c-0.293-0.099-0.253-0.527,0.053-0.568
		l1.11-0.148c0.651-0.088,1.175-0.459,1.362-0.962c0.372-1,0.707-1.821,1.165-2.922l-1.618-0.655
		c-0.32-0.128-0.251-0.503,0.101-0.534l1.019-0.089c0.666-0.061,1.226-0.412,1.448-0.913c0.305-0.685,0.571-1.239,0.966-2.056
		l-1.581-0.845c-0.301-0.164-0.181-0.532,0.178-0.537l0.916-0.011c0.705-0.009,1.325-0.344,1.589-0.858
		c0.346-0.675,0.633-1.205,1.093-2.028l-1.401-0.686c-0.316-0.151-0.203-0.529,0.158-0.537l0.83-0.015
		c0.675-0.015,1.274-0.324,1.55-0.808c0.42-0.729,0.779-1.319,1.312-2.162l-1.367-0.703c-0.307-0.158-0.175-0.531,0.185-0.523
		l0.831,0.021c0.679,0.017,1.297-0.271,1.606-0.744c0.372-0.566,0.686-1.033,1.157-1.725l-1.259-0.733
		c-0.298-0.174-0.146-0.544,0.217-0.525l0.781,0.038c0.674,0.032,1.302-0.232,1.633-0.69c0.079-0.112,0.38-0.609,0.792-1.297
		c0.063,7.396-0.74,19.979-5.034,28.508c-0.12,0.237,0.145,0.481,0.374,0.342c10.336-6.335,10.336-20.001,10.126-27.935
		c4.82,5.152,9.883,21.254,11.124,25.075c0.092,0.284,0.485,0.303,0.604,0.029c0.794-1.831,2.99-5.719,2.167-10.945
		c-1.546-9.82-5.293-14.05-8.901-17.277c6.839,2.364,14.292,5.601,22.301,15.432c0.218,0.267,0.652,0.061,0.583-0.278
		c-2.868-14.258-14.258-18.475-21.918-20.47c6.97-0.394,14.674-0.247,27.3,2.688C277.973,82.585,278.257,82.179,278.051,81.865z
		 M215.172,138.662c-0.09,6.222,0.482,12.261,1.679,18.164c-0.942-1.72-1.865-3.482-2.786-5.385l-3.859,1.312
		c-0.282,0.071-0.477-0.277-0.269-0.479l2.274-2.385c0.444-0.43,0.566-1.095,0.307-1.655c-0.857-1.85-1.317-2.987-2.195-5.136
		l-3.452,1.063c-0.282,0.088-0.49-0.266-0.28-0.472l2.162-2.135c0.412-0.406,0.541-1.022,0.333-1.562
		c-0.733-1.886-1.225-3.308-1.942-5.423l-3.8,0.737c-0.294,0.055-0.47-0.317-0.24-0.509l2.479-2.061
		c0.434-0.393,0.632-0.993,0.453-1.558c-0.383-1.202-0.603-1.977-1.033-3.481c-0.205-0.691-0.372-1.379-0.558-2.079l-3.3,0.657
		c-0.288,0.045-0.455-0.314-0.232-0.506l1.943-1.95c0.499-0.474,0.855-0.988,0.691-1.624c-0.463-1.801-0.762-3.137-1.177-5.155
		l-3.389,0.556c-0.296,0.065-0.479-0.31-0.249-0.505l2.525-1.924c0.401-0.336,0.587-0.866,0.49-1.381
		c-0.407-2.155-0.647-3.722-0.975-6.046l-3.274,0.382c-0.285,0.062-0.473-0.291-0.261-0.492l2.628-2.166
		c0.331-0.316,0.491-0.772,0.435-1.226c-0.21-1.73-0.279-2.754-0.449-4.689l-3.003,0.079c-0.289,0.009-0.409-0.368-0.168-0.528
		l2.309-1.551c0.429-0.29,0.669-0.783,0.637-1.298c-0.105-1.636-0.153-2.715-0.203-4.554l-2.949-0.151
		c-0.294,0-0.403-0.388-0.15-0.539l2.32-1.216c0.441-0.265,0.712-0.745,0.708-1.26c-0.012-1.641,0.016-2.799,0.061-4.61l-2.889-0.28
		c-0.296,0-0.402-0.391-0.148-0.541l2.438-1.145c0.427-0.25,0.697-0.701,0.718-1.195c0.048-1.192,0.108-1.907,0.208-3.334
		l-2.997-0.46c-0.28-0.081-0.289-0.416,0-0.56l2.174-0.725c0.555-0.239,0.99-0.67,1.045-1.267c0.107-1.18,0.229-2.221,0.405-3.636
		l-2.773-0.501c-0.295-0.054-0.325-0.464-0.045-0.56l2.216-0.767c0.516-0.177,0.89-0.635,0.962-1.179
		c0.169-1.274,0.309-2.161,0.553-3.633l-2.603-0.418c-0.298-0.049-0.333-0.465-0.043-0.562l2.183-0.73
		c0.501-0.166,0.873-0.597,0.966-1.117c0.194-1.068,0.343-1.806,0.598-3.07l-2.667-0.555c-0.296-0.063-0.312-0.477-0.022-0.562
		l2.298-0.677c0.522-0.151,0.913-0.581,1.016-1.115c0.071-0.358,0.39-1.727,0.742-3.226c1.436,3.65,2.574,7.534,3.743,12.101
		c-2.202,0.809-3.967,1.874-5.05,2.984c-0.138,0.14-0.038,0.365,0.157,0.379c2.133,0.151,4.073,0.325,5.859,0.519
		c0.796,3.262,1.646,6.876,2.641,10.954c-3.611,2.252-6.24,5.268-7.743,8.366c-0.108,0.228,0.133,0.462,0.354,0.343
		c2.911-1.528,5.742-2.872,8.566-3.953c0.593,2.355,1.232,4.854,1.94,7.517c0.076,0.286,0.477,0.307,0.582,0.033
		c1.259-3.308,2.224-6.395,2.959-9.283c4.259-1.057,8.613-1.418,13.308-0.8c-8.682,2.889-15.618,15.481-17.882,24.096
		c-0.068,0.26,0.262,0.433,0.441,0.229c7.402-8.344,14.924-14.797,19.876-18.534C226.616,96.809,215.172,116.367,215.172,138.662z
		 M219.033,75.88c0.322-2.069,0.52-4.018,0.605-5.845c5.474,1.489,8.333,3.452,11.38,5.82
		C226.575,75.033,222.561,75.131,219.033,75.88z M240.314,70.996c-1.396-7.025-7.698-12.435-18.641-15.817
		c-0.196-0.061-0.341,0.189-0.186,0.327c6.137,5.5,12.586,11.703,14.323,17.165c-4.774-6.159-10.742-8.923-16.372-9.693
		c-0.813-7.353-3.369-12.035-4.922-14.659c6.106,0.756,18.997,5.396,29.488,12.586C241.835,64.544,240.833,68.223,240.314,70.996z"
		/>
	<g>
		<path fill="#85AC1C" d="M268.915,76.981c-2.245-0.962-8.899-2.498-27.361,0.679c1.922-2.078,8.042-8.307,14.596-10.92
			c0.194-0.077,0.384-0.235-0.043-0.188c-1.602,0.191-8.179,2.94-15.047,10.412c0.539-3.017,2.107-10.672,4.938-16.045
			c0.094-0.164,0.058-0.379-0.143-0.164c-1.029,1.099-3.135,4.145-5.656,16.317c-1.633-10.234-6.783-14.359-8.495-15.661
			c-0.382-0.294-0.549-0.067-0.278,0.169c6.238,5.911,7.682,13.619,7.967,15.714c-10.257-9.097-16.86-10.848-19.701-11.288
			c-0.558-0.074-0.552,0.146-0.127,0.288c9.237,3.079,16.74,9.513,19.275,11.868c-13.906-1.947-19.194-0.848-21.114-0.006
			c-0.964,0.44-0.847,0.629,0.067,0.417c6.614-1.494,17.566-0.108,20.846,0.365c-8.007,3.228-13.387,9.205-15.664,12.189
			c-0.169,0.266,0.036,0.393,0.237,0.162c7.379-8.108,15.487-11.474,16.778-11.975c0.555,1.389,2.622,7.587,1.245,19.882
			c-0.033,0.284,0.217,0.359,0.323,0.016c1.302-4.217,1.668-13.019-0.255-19.683c1.859,1.99,8.971,9.948,12.703,19.099
			c0.092,0.235,0.305,0.198,0.259-0.032c-0.498-2.502-2.669-9.309-12.109-19.306c3.563,1.119,15.89,5.215,21.636,10.064
			c0.241,0.203,0.563,0.27,0.215-0.243c-1.282-1.558-5.428-5.488-22.155-10.584c3.008-0.627,16.842-3.274,26.973-1.275
			C269.155,77.321,269.225,77.119,268.915,76.981z"/>
		<path fill="#85AC1C" d="M238.295,35.41c-6.283-3.735-28.625,0.914-33.445,1.979c1.656-2.353,8.496-11.692,17.331-18.584
			c0.123-0.094-0.004-0.283-0.148-0.218c-5.967,2.686-14.756,13.496-17.659,17.217c0.095-2.311,0.728-11.493,4.9-22.552
			c0.058-0.148-0.136-0.27-0.235-0.146c-4.204,5.09-5.759,20.699-5.965,22.976c-0.232-3.037-1.487-13.811-7.816-21.265
			c-0.111-0.131-0.313,0.019-0.227,0.167c6.13,10.573,6.838,18.677,6.895,21.235c-1.848-2.351-13.184-16.269-25.695-20.411
			c-0.236-0.093-0.414,0.107-0.189,0.238c13.401,7.063,22.347,17.962,24.675,20.995c-4.449-0.9-22.881-4.202-35.479-0.007
			c-0.199,0.067-0.124,0.377,0.086,0.348c18.891-2.704,32.37,0.383,35.527,1.219c-2.565,0.823-23.186,7.668-32.958,18.342
			c-0.09,0.098,0.044,0.239,0.147,0.154c13.324-10.613,31.741-16.71,33.801-17.371c-1.873,1.697-16.586,15.405-18.676,28.652
			c-0.023,0.148,0.187,0.203,0.241,0.064c6.569-16.439,18.137-26.595,19.875-28.058c1.469,2.171,9.525,14.739,11.685,31.891
			c0.051,0.426,0.269,0.412,0.308-0.032c1.164-13.03-8.862-29.563-10.539-32.224c2.519,0.453,19.042,3.596,29.942,10.345
			c0.16,0.102,0.295,0.002,0.178-0.169c-3.719-5.536-25.801-10.534-29.879-11.417c3.923-0.945,21.881-5.003,33.219-3.104
			C238.347,35.701,238.433,35.489,238.295,35.41z M204.373,39.569l0.005,0.104l-0.067,0.019L204.373,39.569z"/>
	</g>
	<g>
		<path fill="#00848F" d="M277.038,176.045c0.472,0.18,0.792-0.488,0.354-0.74c-6.438-3.717-20.296-9.941-40.847-9.941
			c-29.287,0-82.356,22.815-123.63,22.815c-18.995,0-33.327-5.824-39.731-9.002c-0.693-0.344-1.323,0.558-0.768,1.095
			c5.7,5.488,25.222,16.327,46.123,16.327c43.929,0,93.131-27.047,120.562-27.047C257.249,169.552,270.493,173.546,277.038,176.045z
			"/>
		<g>
			<rect x="278.235" y="118.561" fill="#00848F" width="6.536" height="41.129"/>
			<path fill="#00848F" d="M242.763,159.689h6.538v-37.402h-6.538V159.689z"/>
			<path fill="#00848F" d="M175.219,118.561v41.129h6.535v-41.129H175.219z"/>
			<polygon fill="#00848F" points="30.395,118.505 1,118.505 1,124.26 12.403,124.26 12.403,159.689 18.938,159.689 18.938,124.26 
				30.395,124.26 			"/>
			<path fill="#00848F" d="M112.401,118.505c-2.246,0-3.88,1.632-3.88,3.882c0,2.178,1.622,3.82,3.773,3.82h0.054
				c2.21,0,3.88-1.643,3.88-3.82C116.229,120.173,114.585,118.505,112.401,118.505z"/>
			<rect x="109.136" y="131.125" fill="#00848F" width="6.533" height="28.564"/>
			<path fill="#00848F" d="M391.419,142.478c-3.565-1.415-4.54-2.243-4.54-3.854c0-1.733,1.424-2.851,3.631-2.851
				c1.714,0,3.433,0.485,5.094,1.444l0.866,0.505l1.687-5.06l-0.523-0.347c-1.731-1.126-4.349-1.801-7.015-1.801
				c-5.856,0-10.109,3.667-10.109,8.717c0,2.553,1.336,6.075,7.709,8.391c3.73,1.399,4.412,2.488,4.412,4.126
				c0,2.023-1.585,3.184-4.348,3.184c-2.285,0-4.703-0.955-6.09-1.775l-0.886-0.53l-1.679,5.278l0.563,0.336
				c2.166,1.272,5.073,2.002,7.979,2.002c6.576,0,10.83-3.51,10.83-8.941C399,147.158,396.655,144.433,391.419,142.478z"/>
			<path fill="#00848F" d="M375.085,158.794c-0.191-2.09-0.221-5.209-0.221-6.878v-33.355h-6.535v14.629
				c-1.568-1.477-4.039-2.674-7.409-2.674c-3.245,0-6.308,1.281-8.616,3.604c-2.784,2.801-4.304,6.95-4.271,11.678
				c0,8.404,5.211,14.502,12.387,14.502c3.479,0,6.521-1.354,8.523-3.719l0.149,3.109h6.07L375.085,158.794z M368.329,147.576
				c0,0.783-0.059,1.354-0.201,1.864c-0.763,3.15-3.321,5.269-6.373,5.269c-5.269,0-7.134-4.953-7.134-9.189
				c0-5.697,2.914-9.523,7.246-9.523c3.513,0,5.676,2.503,6.266,4.995c0.129,0.51,0.196,1.188,0.196,1.915V147.576z"/>
			<path fill="#00848F" d="M333.057,130.516c-3.773,0-6.604,1.698-8.328,3.614l-0.191-3.005h-5.987l0.063,0.884
				c0.153,2.054,0.219,4.212,0.219,7.224v20.457h6.533v-17.061c0-0.742,0.115-1.527,0.293-2.026c0.726-2.21,2.792-4.44,5.784-4.44
				c4.471,0,5.41,3.91,5.41,7.187v16.341h6.533v-16.896C343.386,137.132,340.682,130.516,333.057,130.516z"/>
			<path fill="#00848F" d="M312.825,158.747c-0.249-1.645-0.382-3.834-0.382-6.333v-10.067c0-7.738-3.839-11.831-11.107-11.831
				c-3.383,0-6.869,0.92-9.336,2.466l-0.547,0.341l1.662,4.917l0.894-0.604c1.724-1.166,4.192-1.861,6.612-1.861l0.104-0.003
				c3.405,0,5.104,1.688,5.186,5.148c-14.066,0.181-16.188,6.84-16.188,10.83c0,4.245,3.11,8.55,9.056,8.55
				c3.462,0,6.126-1.414,7.8-3.055l0.325,2.445h6.063L312.825,158.747z M306.021,149.799c0,0.498-0.063,0.947-0.177,1.295
				c-0.625,1.821-2.532,3.949-5.845,3.949c-2.338,0-3.741-1.438-3.741-3.85c0-3.479,3.285-5.244,9.763-5.254V149.799z"/>
			<path fill="#00848F" d="M266.022,142.478c-3.565-1.415-4.54-2.243-4.54-3.854c0-1.733,1.424-2.851,3.626-2.851
				c1.723,0,3.435,0.485,5.096,1.444l0.873,0.505l1.685-5.06l-0.53-0.347c-1.725-1.126-4.347-1.801-7.012-1.801
				c-5.856,0-10.104,3.667-10.104,8.717c0,2.553,1.334,6.075,7.704,8.391c3.734,1.399,4.416,2.488,4.416,4.126
				c0,2.023-1.586,3.184-4.354,3.184c-2.277,0-4.701-0.955-6.083-1.775l-0.889-0.53l-1.683,5.278l0.567,0.336
				c2.165,1.272,5.073,2.002,7.98,2.002c6.576,0,10.83-3.51,10.83-8.941C273.605,147.158,271.265,144.433,266.022,142.478z"/>
			<path fill="#00848F" d="M169.115,158.747c-0.247-1.662-0.377-3.792-0.377-6.333v-10.067c0-7.738-3.842-11.831-11.11-11.831
				c-3.378,0-6.867,0.92-9.332,2.466l-0.553,0.341l1.67,4.917l0.888-0.604c1.726-1.166,4.194-1.861,6.614-1.861l0.105-0.003
				c3.405,0,5.096,1.688,5.178,5.148c-14.062,0.181-16.179,6.84-16.179,10.83c0,4.245,3.109,8.55,9.052,8.55
				c3.464,0,6.129-1.414,7.801-3.055l0.321,2.445h6.07L169.115,158.747z M162.313,149.799c0,0.498-0.063,0.947-0.178,1.295
				c-0.621,1.821-2.525,3.949-5.841,3.949c-2.343,0-3.743-1.438-3.743-3.85c0-3.479,3.287-5.244,9.762-5.254V149.799z"/>
			<path fill="#00848F" d="M135.16,136.051c2.013,0,3.793,0.399,5.292,1.187l0.885,0.459l1.584-5.317l-0.585-0.316
				c-1.313-0.713-3.983-1.547-7.176-1.547c-8.998,0-15.282,6.239-15.282,15.169c0,8.707,5.718,14.559,14.224,14.559
				c3.441,0,6.432-0.845,8.088-1.635l0.589-0.284l-1.2-5.28l-0.907,0.399c-1.356,0.596-3.092,1.209-5.678,1.209
				c-5.096,0-8.523-3.716-8.523-9.245C126.47,138.502,131.149,136.051,135.16,136.051z"/>
			<path fill="#00848F" d="M92.709,130.516c-3.725,0-6.774,1.314-8.938,3.825l-0.189-3.216h-6.045L77.593,132
				c0.158,2.367,0.222,4.979,0.222,8.737v29.965h6.535v-13.255c1.878,1.814,4.57,2.852,7.578,2.852
				c8.973,0,13.054-7.921,13.054-15.28C104.981,136.613,99.821,130.516,92.709,130.516z M91.036,154.82
				c-3.082,0-5.75-2.099-6.494-5.123c-0.125-0.461-0.192-1.083-0.192-1.787v-4.672c0-0.419,0.102-0.934,0.194-1.435l0.059-0.308
				c0.814-3.207,3.554-5.445,6.657-5.445c4.929,0,7.134,4.615,7.134,9.189C98.394,151.148,95.574,154.82,91.036,154.82z"/>
			<path fill="#00848F" d="M59.83,130.516c-8.345,0-14.172,6.219-14.172,15.113c0,8.638,5.644,14.67,13.728,14.67h0.055
				c6.822,0,14.163-4.748,14.163-15.171C73.604,136.525,67.941,130.516,59.83,130.516z M59.549,154.986
				c-4.197,0-7.242-4.007-7.242-9.525c0-4.791,2.29-9.632,7.409-9.632c5.731,0,7.243,6.191,7.243,9.466
				C66.959,150.911,63.865,154.986,59.549,154.986z"/>
			<path fill="#00848F" d="M41.921,130.516c-2.794,0-5.332,1.439-6.976,3.825l-0.137-3.216h-5.945l0.062,0.879
				c0.151,2.28,0.217,4.856,0.217,8.346v19.34h6.539v-15.226c0-0.744,0.051-1.491,0.149-2.133c0.623-3.374,2.884-5.556,5.757-5.556
				c0.616,0,1.076,0.05,1.578,0.105l0.911,0.098v-6.256l-0.851-0.104C42.811,130.566,42.422,130.516,41.921,130.516z"/>
		</g>
	</g>
</g>
</svg>
